<?xml version="1.0" encoding="iso-8859-1"?>
<!-- Uploaded to: SVG Repo, www.svgrepo.com, Generator: SVG Repo Mixer Tools -->
<svg fill="#000000" height="800px" width="800px" version="1.1" id="Layer_1" xmlns="http://www.w3.org/2000/svg" xmlns:xlink="http://www.w3.org/1999/xlink" 
	 viewBox="0 0 512.001 512.001" xml:space="preserve">
<g>
	<g>
		<path d="M482.809,275.887c-4.499-4.793-10.849-7.542-17.422-7.542h-29.632c-12.396,0-22.84,9.706-23.777,22.096
			c-6.168,81.577-75.116,144.985-157.037,144.309c-84.021-0.672-153.516-69.555-154.917-153.552
			c-1.356-81.414,60.935-150.225,140.823-158.104v26.02c0,9.495,5.375,17.824,14.028,21.734c8.654,3.911,18.455,2.441,25.582-3.833
			l71.12-62.61c5.141-4.528,8.09-11.052,8.09-17.902c-0.001-6.851-2.95-13.374-8.091-17.9L280.457,5.992
			c-7.127-6.275-16.93-7.741-25.582-3.833c-8.653,3.91-14.028,12.239-14.028,21.734v21.693
			c-56.544,3.664-109.382,27.546-149.712,67.876c-44.094,44.096-68.378,102.723-68.378,165.081s24.284,120.985,68.378,165.08
			c44.095,44.094,102.721,68.377,165.08,68.377c62.36,0,120.986-24.284,165.079-68.376c40.206-40.207,64.321-93.481,67.902-150.009
			C489.608,287.113,487.28,280.651,482.809,275.887z M406.872,429.2c-40.241,40.243-93.745,62.404-150.655,62.404
			S145.803,469.442,105.561,429.2s-62.404-93.746-62.404-150.656s22.161-110.415,62.404-150.656
			c38.961-38.962,90.711-61.102,145.717-62.344c5.541-0.124,9.968-4.653,9.968-10.196V23.893c0-1.938,1.272-2.803,2.031-3.145
			c0.359-0.162,0.88-0.333,1.485-0.333c0.673,0,1.449,0.213,2.216,0.887l71.12,62.611c1.019,0.896,1.171,2.008,1.171,2.589
			c0,0.583-0.152,1.694-1.171,2.591l-71.119,62.61c-1.454,1.281-2.945,0.898-3.702,0.555c-0.759-0.343-2.031-1.208-2.031-3.145
			v-36.892c0-2.759-1.118-5.4-3.098-7.322c-1.981-1.919-4.633-2.95-7.414-2.872c-46.469,1.424-89.833,20.784-122.103,54.513
			c-32.378,33.843-49.78,78.233-49,124.998c0.769,46.157,19.371,89.594,52.377,122.308c33.005,32.713,76.606,50.932,122.77,51.301
			c0.475,0.003,0.95,0.005,1.423,0.005c91.956,0,169.179-71.408,176.118-163.174c0.14-1.845,1.617-3.236,3.437-3.236h29.632
			c1.318,0,2.163,0.691,2.55,1.104c0.454,0.483,0.978,1.305,0.904,2.48C465.574,343.896,443.567,392.506,406.872,429.2z"/>
	</g>
</g>
</svg>